<?xml version="1.0" standalone="no"?>
<!DOCTYPE svg PUBLIC "-//W3C//DTD SVG 20010904//EN"
 "http://www.w3.org/TR/2001/REC-SVG-20010904/DTD/svg10.dtd">
<svg version="1.0" xmlns="http://www.w3.org/2000/svg"
 width="300.000000pt" height="300.000000pt" viewBox="0 0 300.000000 300.000000"
 preserveAspectRatio="xMidYMid meet">
<metadata>
Created by potrace 1.11, written by Peter Selinger 2001-2013
</metadata>
<g transform="translate(0.000000,300.000000) scale(0.100000,-0.100000)"
fill="#000000" stroke="none">
<path d="M1176 2562 c-3 -5 8 -9 24 -9 16 0 27 4 24 9 -3 4 -14 8 -24 8 -10 0
-21 -4 -24 -8z"/>
<path d="M1286 2531 c-9 -10 -20 -35 -23 -55 -6 -41 -19 -37 -26 9 l-4 30 -2
-30 c-1 -26 21 -116 43 -180 5 -14 -1 -10 -21 12 -27 30 -48 83 -72 178 -10
40 -10 40 -5 -10 5 -48 5 -49 -11 -27 -18 25 -53 29 -61 7 -4 -8 -1 -21 5 -29
6 -7 9 -16 6 -19 -3 -4 -3 -5 0 -3 15 10 129 -103 155 -154 25 -49 25 -50 -5
-50 -19 0 -28 8 -36 28 -12 32 -42 66 -84 95 -22 14 -17 6 18 -29 26 -27 47
-54 47 -59 0 -6 -21 -21 -47 -35 -67 -36 -140 -111 -171 -177 -24 -52 -27 -69
-27 -168 1 -73 7 -132 19 -175 28 -104 89 -291 93 -286 2 2 -14 64 -36 137
-56 184 -74 300 -62 378 18 109 63 184 146 241 24 17 46 30 48 30 3 0 7 -11 9
-25 4 -19 -3 -31 -33 -54 -52 -43 -100 -142 -106 -223 -4 -52 0 -79 26 -156
55 -164 65 -297 25 -336 -17 -18 -10 -57 15 -80 25 -23 96 -35 199 -36 l92 0
0 -87 c0 -49 3 -98 6 -111 6 -22 5 -23 -43 -16 -62 8 -116 -15 -145 -60 -23
-38 -18 -93 12 -118 l20 -16 -21 -54 c-11 -29 -25 -57 -30 -62 -18 -19 -8 -26
34 -25 38 0 40 1 19 11 -17 8 -21 17 -16 32 8 28 8 28 28 20 15 -6 15 -7 -1
-20 -17 -13 -17 -14 0 -8 13 5 17 1 17 -15 0 -12 4 -21 10 -21 5 0 7 34 3 85
-5 67 -2 94 11 130 15 39 39 65 60 65 13 0 4 -47 -14 -75 -22 -34 -25 -80 -9
-155 l11 -50 163 0 164 0 -13 43 c-7 23 -10 49 -8 57 6 18 32 39 49 40 17 0
63 -82 63 -113 0 -26 2 -27 60 -27 l61 0 -7 38 c-3 20 -20 62 -36 94 -24 45
-28 60 -19 76 6 12 11 40 11 64 0 50 -19 77 -70 98 -28 12 -37 11 -83 -8 -29
-12 -71 -22 -94 -22 -48 0 -48 -1 -57 146 l-5 81 85 17 c99 19 247 65 352 108
l73 30 -6 62 c-34 332 -103 676 -147 724 -57 62 -208 92 -364 73 -55 -7 -114
-15 -133 -18 -33 -6 -33 -5 -27 28 5 32 4 31 -9 -6 -7 -22 -14 -52 -14 -66 -1
-25 -27 -47 -40 -34 -13 14 -2 113 17 158 12 26 17 45 12 42 -14 -9 -12 7 6
61 8 25 13 52 10 60 -8 20 -40 17 -60 -5z m17 -26 c-3 -9 -8 -14 -10 -11 -3 3
-2 9 2 15 9 16 15 13 8 -4z m-138 -83 c-3 -3 3 -11 13 -19 15 -13 15 -13 -5
-3 -28 13 -37 27 -18 27 8 0 13 -3 10 -5z m167 -234 c-25 -10 -105 -9 -121 1
-9 6 14 9 62 8 42 -1 68 -5 59 -9z m154 -934 c-8 -21 -60 -15 -64 8 -2 12 5
17 30 20 35 3 43 -3 34 -28z m14 -54 c0 -17 -7 -20 -40 -20 -33 0 -40 3 -40
20 0 17 7 20 40 20 33 0 40 -3 40 -20z m0 -72 c0 -28 -9 -33 -55 -28 -27 3
-32 9 -15 20 10 7 11 10 3 10 -7 0 -13 6 -13 14 0 9 12 13 40 12 37 -1 40 -3
40 -28z m-8 -74 c-6 -34 -62 -30 -62 5 0 12 9 17 33 18 30 0 33 -2 29 -23z
m-206 -32 c-14 -16 -32 -46 -38 -68 -9 -35 -12 -37 -20 -19 -13 30 6 72 44 95
44 27 47 25 14 -8z m-10 -182 c0 -11 -4 -20 -8 -20 -4 0 -8 9 -8 20 0 11 4 20
8 20 4 0 8 -9 8 -20z"/>
<path d="M1396 2509 c-14 -11 -34 -35 -43 -52 -13 -27 -9 -24 27 16 48 55 90
65 90 22 0 -14 -6 -25 -13 -25 -8 0 -23 -10 -34 -22 -22 -25 -47 -68 -39 -68
3 0 12 13 21 29 8 16 28 35 45 42 35 16 40 26 29 57 -11 28 -47 29 -83 1z"/>
<path d="M1046 2382 c12 -11 64 -33 64 -27 0 5 -56 35 -67 35 -4 0 -3 -4 3 -8z"/>
<path d="M1990 326 l0 -186 25 0 c25 0 25 1 26 93 l1 92 24 -50 c13 -28 24
-68 24 -92 0 -39 2 -43 25 -43 l25 0 0 185 0 185 -25 0 c-24 0 -25 -3 -25 -62
0 -69 -5 -69 -36 5 -15 36 -29 53 -43 55 -21 3 -21 1 -21 -182z"/>
<path d="M724 479 c-16 -18 -19 -40 -22 -153 -3 -146 5 -175 51 -187 15 -4 41
-3 57 3 42 14 53 60 49 202 -4 109 -6 119 -28 137 -31 26 -83 25 -107 -2z m74
-162 c3 -82 2 -87 -18 -87 -18 0 -20 6 -20 83 0 46 3 87 7 91 19 19 28 -8 31
-87z"/>
<path d="M1094 479 c-16 -18 -19 -40 -22 -153 -2 -92 1 -138 10 -155 15 -28
52 -41 93 -33 45 8 57 54 53 199 -3 117 -4 126 -27 144 -31 26 -83 25 -107 -2z
m74 -162 c3 -82 2 -87 -18 -87 -18 0 -20 6 -20 83 0 46 3 87 7 91 19 19 28 -8
31 -87z"/>
<path d="M517 483 c-9 -8 -9 -306 -1 -327 3 -9 17 -16 30 -16 23 0 24 3 24 61
0 57 1 60 23 57 19 -3 22 -10 25 -60 3 -54 5 -58 27 -58 25 0 25 1 25 84 0 47
-4 87 -9 91 -6 3 -9 33 -8 68 2 99 -4 107 -72 107 -32 0 -61 -3 -64 -7z m83
-108 c0 -24 -5 -35 -15 -35 -10 0 -15 11 -15 35 0 24 5 35 15 35 10 0 15 -11
15 -35z"/>
<path d="M890 315 l0 -175 59 0 c81 0 91 12 91 105 0 41 -4 76 -9 80 -6 3 -9
34 -8 69 2 82 -9 96 -79 96 l-54 0 0 -175z m90 70 c0 -18 -5 -25 -20 -25 -15
0 -20 7 -20 25 0 18 5 25 20 25 15 0 20 -7 20 -25z m8 -132 c-2 -20 -9 -28
-23 -28 -14 0 -21 8 -23 28 -3 23 0 27 23 27 23 0 26 -4 23 -27z"/>
<path d="M1320 315 l0 -175 25 0 c22 0 24 4 27 57 3 55 4 58 31 61 26 3 28 6
25 45 -3 37 -6 42 -30 45 -22 3 -28 9 -28 27 0 20 6 24 38 27 36 3 37 4 40 46
l3 42 -65 0 -66 0 0 -175z"/>
<path d="M1480 315 l0 -175 25 0 c22 0 24 4 27 57 3 51 6 58 26 61 21 3 22 0
22 -58 0 -61 0 -61 28 -58 26 3 27 5 30 69 2 36 -3 79 -9 95 -7 16 -11 54 -10
86 4 84 -7 98 -79 98 l-60 0 0 -175z m85 59 c0 -19 -6 -30 -17 -32 -14 -3 -18
3 -18 26 0 16 3 32 7 36 14 13 28 -1 28 -30z"/>
<path d="M1660 445 c0 -33 4 -45 15 -45 12 0 15 -16 15 -85 0 -69 -3 -85 -15
-85 -11 0 -15 -12 -15 -45 l0 -45 60 0 60 0 0 45 c0 33 -4 45 -15 45 -12 0
-15 16 -15 85 0 69 3 85 15 85 11 0 15 12 15 45 l0 45 -60 0 -60 0 0 -45z"/>
<path d="M1820 315 l0 -175 65 0 65 0 0 45 0 45 -41 0 c-36 0 -40 2 -37 23 2
16 11 23 31 25 24 3 27 7 27 42 0 35 -3 39 -27 42 -16 2 -29 10 -31 20 -2 13
5 17 35 20 37 3 38 4 41 46 l3 42 -65 0 -66 0 0 -175z"/>
<path d="M2180 315 l0 -175 55 0 c89 0 95 11 95 178 0 166 -3 172 -93 172
l-57 0 0 -175z m98 3 c-3 -75 -5 -83 -23 -83 -18 0 -20 8 -23 83 l-3 82 26 0
26 0 -3 -82z"/>
<path d="M2382 477 c-17 -21 -25 -109 -13 -153 9 -34 17 -43 43 -50 18 -6 34
-17 36 -26 3 -13 -6 -17 -40 -20 l-43 -3 0 -40 0 -40 49 -3 c74 -5 86 12 86
113 0 88 -5 97 -52 109 -42 10 -36 36 7 36 35 0 35 0 35 45 l0 45 -49 0 c-27
0 -53 -6 -59 -13z"/>
</g>
</svg>
